<svg xmlns="http://www.w3.org/2000/svg" xmlns:xlink="http://www.w3.org/1999/xlink" width="302.906" height="98.241" viewBox="0 0 302.906 98.241">
  <defs>
    <clipPath id="clip-path">
      <path id="Path_42" data-name="Path 42" d="M3841.509,1063.66v0Z" transform="translate(-3841.509 -1063.66)" fill="none"/>
    </clipPath>
    <clipPath id="clip-path-2">
      <path id="Path_43" data-name="Path 43" d="M4219.85,1181.625h0v0" transform="translate(-4219.85 -1181.612)" fill="none"/>
    </clipPath>
    <radialGradient id="radial-gradient" cx="0.5" cy="0.681" r="3.324" gradientTransform="matrix(0.207, 0, 0, -0.999, -9.076, -4.875)" gradientUnits="objectBoundingBox">
      <stop offset="0.134" stop-color="#ffd8b3"/>
      <stop offset="0.194" stop-color="#f5cb9e"/>
      <stop offset="0.313" stop-color="#dda96e"/>
      <stop offset="0.443" stop-color="#bd8237"/>
      <stop offset="0.841" stop-color="#b96e18"/>
    </radialGradient>
    <radialGradient id="radial-gradient-2" cx="0.5" cy="6.669" r="20.685" gradientTransform="matrix(0.028, 0, 0, -1.011, -9.255, -41.063)" xlink:href="#radial-gradient"/>
    <radialGradient id="radial-gradient-3" cx="-610.435" cy="-149.301" r="942.229" gradientTransform="matrix(1, 0, 0, -1, 9.206, -18013.326)" xlink:href="#radial-gradient"/>
    <radialGradient id="radial-gradient-4" cx="0.5" cy="0.583" r="2.213" gradientTransform="matrix(0.324, 0, 0, -1.001, -6.61, -2.161)" xlink:href="#radial-gradient"/>
  </defs>
  <g id="Skopsko_Logo" data-name="Skopsko Logo" transform="translate(-3830.605 -1059.393)">
    <g id="Group_6" data-name="Group 6" transform="translate(3830.605 1059.393)">
      <path id="Path_1" data-name="Path 1" d="M3840.082,1153.507a187.474,187.474,0,0,1-4.73-43.3c0-20.326,2.75-35.255,4.7-43.284,17.828,2.376,66.059,4.739,142.919,4.739s125.092-2.363,142.92-4.739a201.107,201.107,0,0,1-.029,86.583c-19.547-2.643-74.407-6.207-142.89-6.207s-123.346,3.564-142.89,6.207" transform="translate(-3831.785 -1061.265)" fill="#123c1b"/>
      <path id="Path_2" data-name="Path 2" d="M3975.343,1181.626l-4.221-4.65,4.221-4.644h83.052l4.222,4.644-4.222,4.65Z" transform="translate(-3865.531 -1087.464)" fill="#c4001e"/>
      <path id="Path_3" data-name="Path 3" d="M3942.017,1113.9l.445,1.108,10.635-26.116h-.893Z" transform="translate(-3858.297 -1066.725)" fill="#162e16"/>
      <path id="Path_4" data-name="Path 4" d="M3885.735,1112.567l12.688-5.126v-1.479l-12.688,5.126Z" transform="translate(-3844.308 -1070.968)" fill="#162e16"/>
      <path id="Path_5" data-name="Path 5" d="M4084.858,1100.441c0-1.2-.558-1.728-1.811-1.728h-3.415c-1.31,0-1.9.536-1.9,1.728v1.48c0-1.2.585-1.728,1.9-1.728h3.415c1.252,0,1.811.533,1.811,1.728Z" transform="translate(-3892.03 -1069.166)" fill="#162e16"/>
      <path id="Path_6" data-name="Path 6" d="M4183.446,1099.492h-3.995c-1.313,0-1.9.533-1.9,1.728v1.477c0-1.2.588-1.728,1.9-1.728h3.995c1.252,0,1.813.536,1.813,1.728v-1.477c0-1.2-.561-1.728-1.813-1.728" transform="translate(-3916.838 -1069.359)" fill="#162e16"/>
      <path id="Path_7" data-name="Path 7" d="M3883.379,1100.441c0-1.2-.561-1.728-1.813-1.728h-3.412c-1.313,0-1.9.536-1.9,1.728v1.48c0-1.2.585-1.728,1.9-1.728h3.412c1.252,0,1.813.533,1.813,1.728Z" transform="translate(-3841.952 -1069.166)" fill="#162e16"/>
      <path id="Path_8" data-name="Path 8" d="M3981.775,1099.492h-3.992c-1.315,0-1.9.533-1.9,1.728v1.477c0-1.2.583-1.728,1.9-1.728h3.992c1.253,0,1.813.536,1.813,1.728v-1.477c0-1.2-.561-1.728-1.813-1.728" transform="translate(-3866.714 -1069.359)" fill="#162e16"/>
      <path id="Path_9" data-name="Path 9" d="M4053.681,1096.391l2.033-7.5h.706l-2.723,9.982Z" transform="translate(-3886.051 -1066.725)" fill="#162e16"/>
      <path id="Path_10" data-name="Path 10" d="M4008.985,1096.559l-2.094-7.665h-.706l2.792,10.227Z" transform="translate(-3874.246 -1066.725)" fill="#162e16"/>
      <path id="Path_11" data-name="Path 11" d="M4143.489,1113.9l.441,1.1,10.644-26.108h-.9Z" transform="translate(-3908.372 -1066.725)" fill="#162e16"/>
      <path id="Path_12" data-name="Path 12" d="M4087.213,1112.567l12.688-5.126v-1.479l-12.688,5.126Z" transform="translate(-3894.385 -1070.968)" fill="#162e16"/>
      <rect id="Rectangle_2" data-name="Rectangle 2" width="7.705" height="1.479" transform="translate(147.338 30.129)" fill="#162e16"/>
      <path id="Path_13" data-name="Path 13" d="M4082.576,1087.39h-10.655q-10.487,0-10.488,9.156v34.619q0,9.157,10.488,9.156h10.655q10.568,0,10.565-9.156v-9.15h-11.985v8.072a2.136,2.136,0,0,1-.5,1.624,2.446,2.446,0,0,1-1.666.458h-3.413a2.594,2.594,0,0,1-1.746-.458,2.141,2.141,0,0,1-.5-1.624v-32.463q0-2.078,2.247-2.08h3.408c1.448,0,2.165.7,2.165,2.08v8.324l11.985-4.842v-4.563q0-9.153-10.565-9.156m-20.422,43.777v-34.619c0-3.88,1.5-6.4,4.538-7.6-.075.062-.157.129-.231.195-1.9,1.661-2.869,4.152-2.869,7.407v34.619c0,3.255.966,5.749,2.869,7.409.075.068.155.132.234.195-3.046-1.2-4.54-3.721-4.54-7.6m19.726-1.081v-7.355h1.437v7.355c0,.767-.187,1.019-.264,1.091a1.754,1.754,0,0,1-1.18.271h-.2a3.854,3.854,0,0,0,.209-1.362m1.437-25.781-1.437.58v-7.26a3.29,3.29,0,0,0-.264-1.362h.256c1.052,0,1.444.371,1.444,1.362Z" transform="translate(-3887.978 -1066.351)" fill="#fff"/>
      <path id="Path_14" data-name="Path 14" d="M3935.241,1087.391,3925,1113.525l10.236,26.8h12.819l-10.655-26.8,10.653-26.134Zm.5,52.216-9.966-26.079,9.956-25.421h1.333l-9.955,25.412,9.963,26.084Z" transform="translate(-3854.068 -1066.352)" fill="#fff"/>
      <path id="Path_15" data-name="Path 15" d="M3881.093,1087.39H3870.44q-10.487,0-10.488,9.156v34.619q0,9.157,10.488,9.156h10.653q10.573,0,10.57-9.156v-9.15h-11.983v8.072a2.137,2.137,0,0,1-.5,1.624,2.434,2.434,0,0,1-1.664.458H3874.1a2.581,2.581,0,0,1-1.746-.458,2.133,2.133,0,0,1-.5-1.624v-32.463q0-2.076,2.249-2.08h3.413q2.167,0,2.164,2.08v8.324l11.985-4.842v-4.563q0-9.153-10.57-9.156m-20.427,43.777v-34.619c0-3.88,1.495-6.4,4.538-7.6-.075.065-.157.132-.232.2-1.9,1.661-2.869,4.152-2.869,7.407v34.619c0,3.255.969,5.749,2.869,7.409.075.068.154.132.235.2-3.047-1.2-4.54-3.724-4.54-7.606m19.725-1.081v-7.355h1.44v7.355c0,.767-.187,1.019-.264,1.091a1.744,1.744,0,0,1-1.183.271h-.2a3.839,3.839,0,0,0,.209-1.362m1.44-25.781-1.44.58v-7.26a3.29,3.29,0,0,0-.264-1.362h.256c1.052,0,1.447.371,1.447,1.362Z" transform="translate(-3837.899 -1066.351)" fill="#fff"/>
      <path id="Path_16" data-name="Path 16" d="M3908.943,1140.328h11.818v-52.934h-11.818Zm.72-52.216h1.438v51.5h-1.435Z" transform="translate(-3850.076 -1066.353)" fill="#fff"/>
      <path id="Path_17" data-name="Path 17" d="M4136.719,1087.391l-10.234,26.134,10.234,26.8h12.819l-10.652-26.8,10.652-26.134Zm.5,52.216-9.963-26.079,9.958-25.421h1.332l-9.957,25.412,9.965,26.084Z" transform="translate(-3904.146 -1066.352)" fill="#fff"/>
      <path id="Path_18" data-name="Path 18" d="M4110.42,1140.328h11.818v-52.934H4110.42Zm.72-52.216h1.437v51.5h-1.437Z" transform="translate(-3900.153 -1066.353)" fill="#fff"/>
      <path id="Path_19" data-name="Path 19" d="M3981.3,1087.391h-11.156q-10.573,0-10.57,9.156v34.543q0,9.24,10.57,9.243H3981.3q10.483,0,10.483-9.243v-34.543q0-9.153-10.483-9.156m-16.513,51.342c-3.016-1.23-4.5-3.757-4.5-7.646v-34.541c0-3.865,1.5-6.381,4.545-7.59a2.645,2.645,0,0,0-.216.18c-1.918,1.661-2.89,4.154-2.89,7.41v34.543c0,3.43,1.021,5.984,3.056,7.646m15.1-9.228q0,2.081-2.167,2.082h-3.993q-2.254,0-2.254-2.082v-31.3q0-2.076,2.254-2.079h3.993c1.442,0,2.167.7,2.167,2.079Zm2.152,0c0,.994-.394,1.362-1.444,1.362h-.256a3.277,3.277,0,0,0,.264-1.362v-31.3a3.29,3.29,0,0,0-.264-1.362h.256c1.052,0,1.444.369,1.444,1.362Z" transform="translate(-3862.661 -1066.352)" fill="#fff"/>
      <path id="Path_20" data-name="Path 20" d="M4182.976,1087.391H4171.82q-10.573,0-10.573,9.156v34.543q0,9.24,10.573,9.243h11.156q10.478,0,10.485-9.243v-34.543q0-9.153-10.485-9.156m-16.513,51.342c-3.017-1.23-4.5-3.757-4.5-7.646v-34.541c0-3.865,1.494-6.381,4.543-7.59-.075.057-.145.117-.217.18-1.918,1.661-2.889,4.154-2.889,7.41v34.543c0,3.43,1.023,5.984,3.058,7.646m15.1-9.228q0,2.081-2.164,2.082H4175.4q-2.25,0-2.249-2.082v-31.3q0-2.076,2.249-2.079h3.995q2.164,0,2.164,2.079Zm2.155,0c0,.994-.394,1.362-1.448,1.362h-.254a3.286,3.286,0,0,0,.265-1.362v-31.3a3.29,3.29,0,0,0-.265-1.362h.254c1.052,0,1.448.369,1.448,1.362Z" transform="translate(-3912.786 -1066.352)" fill="#fff"/>
      <path id="Path_21" data-name="Path 21" d="M4031.3,1087.391h-24.112l2.386,8.739v44.2h11.9v-44.2h8.409v44.2h11.9v-43.78c0-.2-.015-.376-.017-.568l2.342-8.588Zm-19.568,52.216H4010.3v-43.574l-2.164-7.923h1.385l2.217,8.116Zm20.311,0h-1.437V1096.85h1.437Z" transform="translate(-3874.496 -1066.352)" fill="#fff"/>
      <path id="Path_22" data-name="Path 22" d="M4107.97,1140.563h-11.153c-7.248,0-10.921-3.231-10.921-9.592v-34.54c0-6.306,3.674-9.5,10.921-9.5h11.153c7.191,0,10.837,3.2,10.837,9.5v34.54c0,6.363-3.646,9.592-10.837,9.592m-11.153-52.936c-6.876,0-10.22,2.88-10.22,8.8v34.54c0,5.98,3.345,8.889,10.22,8.889h11.153c6.821,0,10.137-2.909,10.137-8.889v-34.54c0-5.925-3.315-8.8-10.137-8.8Zm-13.123,52.936h-13.578l-9.9-25.908v25.908H4047.7v-53.635h12.521v25.265l9.9-25.265H4083.7l-10.8,26.486Zm-13.093-.7h12.06l-10.512-26.451,10.508-25.783H4070.6l-10.105,25.786Zm-22.2,0h11.112V1087.63H4048.4Zm-16.022.7h-10.655c-7.19,0-10.839-3.2-10.839-9.507v-34.625c0-6.306,3.649-9.5,10.839-9.5h10.655c7.245,0,10.916,3.2,10.916,9.5v4.8l-12.688,5.125v-8.845c0-1.2-.557-1.728-1.811-1.728h-3.415c-1.31,0-1.893.535-1.893,1.728v32.463a1.852,1.852,0,0,0,.384,1.365,2.33,2.33,0,0,0,1.51.366h3.415a2.127,2.127,0,0,0,1.428-.366,1.835,1.835,0,0,0,.386-1.365v-8.425H4043.3v9.507c0,6.312-3.671,9.507-10.916,9.507m-10.655-52.936c-6.822,0-10.137,2.88-10.137,8.8v34.625c0,5.923,3.315,8.8,10.137,8.8h10.655c6.874,0,10.214-2.882,10.214-8.8v-8.8h-11.285v7.72a2.409,2.409,0,0,1-.615,1.879,2.7,2.7,0,0,1-1.9.553h-3.415a2.863,2.863,0,0,1-1.982-.553,2.418,2.418,0,0,1-.613-1.879V1097.51c0-1.108.451-2.431,2.6-2.431h3.415a2.211,2.211,0,0,1,2.513,2.431v7.805l11.282-4.561v-4.326c0-5.925-3.34-8.8-10.214-8.8Zm-16.3,52.936h-12.6v-44.2h-7.7v44.2h-12.607v-44.5l-2.5-9.135h37.84l-2.447,8.976.005.14c0,.128.008.257.008.388Zm-11.9-.7h11.2v-43.429c0-.122-.008-.241-.01-.358l-.01-.252,2.234-8.191h-36l2.279,8.386v43.848h11.2v-44.2h9.108Zm-37.105.7H3945.27c-7.246,0-10.922-3.231-10.922-9.592v-34.54c0-6.306,3.676-9.5,10.922-9.5h11.153c7.191,0,10.837,3.2,10.837,9.5v34.54c0,6.363-3.646,9.592-10.837,9.592m-11.153-52.936c-6.877,0-10.22,2.88-10.22,8.8v34.54c0,5.98,3.342,8.889,10.22,8.889h11.153c6.82,0,10.137-2.909,10.137-8.889v-34.54c0-5.925-3.318-8.8-10.137-8.8Zm-12.979,52.936h-13.576l-9.9-25.9v25.9H3896.3v-53.635h12.521v25.26l9.9-25.26H3932.3l-10.8,26.486Zm-13.1-.7h12.063l-10.516-26.451,10.509-25.783H3919.2l-10.1,25.786Zm-22.194,0h11.115V1087.63H3897Zm-16.025.7h-10.653c-7.193,0-10.839-3.2-10.839-9.507v-34.625c0-6.306,3.646-9.5,10.839-9.5h10.653c7.248,0,10.922,3.2,10.922,9.5v4.8l-12.687,5.125v-8.845c0-1.2-.558-1.728-1.813-1.728h-3.414c-1.313,0-1.9.535-1.9,1.728v32.463a1.865,1.865,0,0,0,.389,1.365,2.323,2.323,0,0,0,1.51.366h3.412a2.153,2.153,0,0,0,1.428-.366,1.855,1.855,0,0,0,.383-1.365v-8.425h12.688v9.507c0,6.312-3.674,9.507-10.922,9.507m-10.653-52.936c-6.822,0-10.139,2.88-10.139,8.8v34.625c0,5.923,3.318,8.8,10.139,8.8h10.653c6.879,0,10.22-2.882,10.22-8.8v-8.8h-11.281v7.72a2.422,2.422,0,0,1-.612,1.879,2.706,2.706,0,0,1-1.9.553h-3.415a2.87,2.87,0,0,1-1.986-.553,2.45,2.45,0,0,1-.615-1.879V1097.51c0-1.108.451-2.431,2.6-2.431h3.412a2.211,2.211,0,0,1,2.513,2.431v7.805l11.285-4.561v-4.326c0-5.925-3.34-8.8-10.219-8.8Zm234.067,44.2h-3.992c-2.146,0-2.6-1.323-2.6-2.433V1098.1c0-1.111.456-2.433,2.6-2.433h3.995a2.214,2.214,0,0,1,2.516,2.433v31.293a2.214,2.214,0,0,1-2.516,2.433m-3.995-35.456c-1.313,0-1.9.533-1.9,1.728v31.293c0,1.2.588,1.728,1.9,1.728h3.995c1.253,0,1.813-.533,1.813-1.728V1098.1c0-1.2-.561-1.728-1.813-1.728Zm-147.551,35.456h-3.992c-2.149,0-2.6-1.323-2.6-2.433V1098.1c0-1.111.451-2.433,2.6-2.433h3.992a2.214,2.214,0,0,1,2.516,2.433v31.293a2.214,2.214,0,0,1-2.516,2.433m-3.992-35.456c-1.315,0-1.9.533-1.9,1.728v31.293c0,1.2.583,1.728,1.9,1.728h3.992c1.253,0,1.813-.533,1.813-1.728V1098.1c0-1.2-.561-1.728-1.813-1.728Z" transform="translate(-3837.783 -1066.237)" fill="#927d4a"/>
      <path id="Path_23" data-name="Path 23" d="M3998.5,1178.727a.581.581,0,0,0-.521-.635l-.037,0c-.957-.162-1.432-.61-1.432-1.353s.421-1.114,1.27-1.114h.322a2.879,2.879,0,0,1,.877.157.468.468,0,0,0,.319-.157l.237,1.034-.08.08a3.442,3.442,0,0,0-1.353-.239c-.322,0-.478.08-.478.239,0,.319.212.506.638.558a1.365,1.365,0,0,1,1.273,1.434c0,.794-.376,1.193-1.116,1.193h-.316a5.537,5.537,0,0,1-1.036-.159.456.456,0,0,0-.319.159l-.237-1.116.075-.075a3.9,3.9,0,0,0,1.514.239c.264,0,.4-.08.4-.239m5.574.877a.442.442,0,0,0,.159.316h-1.345a.471.471,0,0,0,.151-.316v-3.666a.455.455,0,0,0-.159-.316h1.357a.438.438,0,0,0-.159.316Zm5.489-3.983h1.353a.456.456,0,0,0-.157.316v3.666a.459.459,0,0,0,.157.316h-1.34a.48.48,0,0,0,.15-.316v-.718a4.624,4.624,0,0,0-.959-2.311v3.028a.465.465,0,0,0,.162.316h-1.342a.472.472,0,0,0,.15-.316v-3.666a.455.455,0,0,0-.159-.316h1.358a13.9,13.9,0,0,1,.794,1.353v-1.036a.46.46,0,0,0-.161-.316m7.325,0,.237,1.034-.075.08a.771.771,0,0,0-.558-.239h-.718c-.322,0-.478.108-.478.319v1.91c0,.212.157.316.478.316h.082a3.482,3.482,0,0,0,1.268-.313,3.135,3.135,0,0,0-.237,1.033l.165.159h-1.833q-.96,0-.959-.794v-2.63q0-.874.959-.874Zm4.777,2.545v.8a1.091,1.091,0,0,0,.4.075,3.5,3.5,0,0,0,1.432-.316,3.145,3.145,0,0,0-.239,1.033l.162.159h-2.937a.462.462,0,0,0,.15-.316v-3.666a.461.461,0,0,0-.162-.316h2.787l.239,1.034-.075.08a.778.778,0,0,0-.561-.239h-1.193v.879h.633a1.3,1.3,0,0,0,.72-.162v1.118a1.3,1.3,0,0,0-.715-.162Zm7.295-1.653a1.743,1.743,0,0,0-.625.144l.473-1.026-.01-.008h1.353a.458.458,0,0,0-.159.316l.015,3.666a.469.469,0,0,0,.157.316h-1.353a.48.48,0,0,0,.15-.316Zm5.916,1.738a1.364,1.364,0,0,1-1.273-1.435c0-.8.369-1.193,1.116-1.193h.794c.745,0,1.116.4,1.116,1.193v1.982c0,.745-.423,1.116-1.278,1.116h-.316a2.815,2.815,0,0,1-.874-.159.451.451,0,0,0-.319.159l-.239-1.034.08-.082a3.374,3.374,0,0,0,1.353.239c.376,0,.558-.075.558-.239,0-.025,0-.05-.005-.075h.005v-.526a1.93,1.93,0,0,1-.242.045,1.113,1.113,0,0,1-.234.02,1.286,1.286,0,0,1-.241-.02m.718-1.434q0-.239-.4-.239h-.162c-.264,0-.4.08-.4.239a.494.494,0,1,0,.953,0m5.97,2.229a3.543,3.543,0,0,0,1.592-.316,3.847,3.847,0,0,0-.237,1.033l.157.159h-3.033a4.6,4.6,0,0,0,.08-1.193,1.363,1.363,0,0,1,1.278-1.434q.634-.079.635-.558,0-.239-.478-.239a3.442,3.442,0,0,0-1.353.239l-.08-.08.237-1.034a.465.465,0,0,0,.318.157,2.856,2.856,0,0,1,.877-.157h.319c.849,0,1.273.369,1.273,1.114s-.476,1.193-1.432,1.353a.582.582,0,0,0-.56.6.264.264,0,0,0,0,.034l.005.239a1.277,1.277,0,0,0,.394.075m6.924-3.422h1.353a.455.455,0,0,0-.157.316v3.666a.459.459,0,0,0,.157.316H4048.5a.463.463,0,0,0,.144-.316v-1.753a2.149,2.149,0,0,0-.953.635h-.874a.46.46,0,0,0-.159-.319v-2.229a.453.453,0,0,0-.159-.316h1.353a.441.441,0,0,0-.159.316v1.753a3.1,3.1,0,0,1,.953-.877v-.877a.438.438,0,0,0-.161-.316" transform="translate(-3871.841 -1088.28)" fill="#97daf9"/>
      <path id="Path_24" data-name="Path 24" d="M3979.981,1178.316s1.5-.207,3.011-.318c.376-.03.751-.1,1.106-.112a4.867,4.867,0,0,1,.961.112,3.716,3.716,0,0,1,.941.318v.089a3.729,3.729,0,0,1-.941.321,4.66,4.66,0,0,1-.961.107c-.354-.008-.73-.075-1.106-.107-1.51-.114-3.011-.321-3.011-.321Z" transform="translate(-3867.732 -1088.844)" fill="#97daf9"/>
      <path id="Path_25" data-name="Path 25" d="M4082.027,1178.409s-1.5.2-3.011.316c-.376.03-.751.1-1.106.11a4.54,4.54,0,0,1-.961-.11,3.741,3.741,0,0,1-.942-.316v-.092a3.709,3.709,0,0,1,.942-.318,4.519,4.519,0,0,1,.961-.11c.356.008.732.075,1.106.11,1.507.112,3.011.318,3.011.318Z" transform="translate(-3891.6 -1088.845)" fill="#97daf9"/>
      <g id="Group_5" data-name="Group 5">
        <g id="Group_2" data-name="Group 2" transform="translate(8.194 3.207)">
          <path id="Path_26" data-name="Path 26" d="M3841.509,1063.66v0Z" transform="translate(-3841.509 -1063.66)" fill="#927d4a"/>
          <g id="Group_18" data-name="Group 18">
            <g id="Group_17" data-name="Group 17" clip-path="url(#clip-path)">
              <g id="Group_1" data-name="Group 1" transform="translate(-0.285 -0.13)">
                <rect id="Rectangle_3" data-name="Rectangle 3" width="381.677" height="8.122" fill="#927d4a"/>
              </g>
            </g>
          </g>
        </g>
        <g id="Group_4" data-name="Group 4" transform="translate(292.498 91.841)">
          <path id="Path_28" data-name="Path 28" d="M4219.85,1181.624h0v0" transform="translate(-4219.85 -1181.612)" fill="#927d4a"/>
          <g id="Group_20" data-name="Group 20" transform="translate(0 0)">
            <g id="Group_19" data-name="Group 19" clip-path="url(#clip-path-2)">
              <g id="Group_3" data-name="Group 3" transform="translate(-0.038 -0.122)">
                <rect id="Rectangle_4" data-name="Rectangle 4" width="0.307" height="0.231" fill="#927d4a"/>
              </g>
            </g>
          </g>
        </g>
        <path id="Path_30" data-name="Path 30" d="M4127.369,1157.631c2.458-8.149,6.142-26.15,6.142-49.127,0-23.24-3.663-41.08-6.122-49.11h0c-17.342,2.655-59.444,7.026-118.479,8.094q-12.925.1-26.851.1t-26.852-.1c-59.035-1.068-101.137-5.44-118.479-8.094l4.256,6.381c17.6,2.344,65.207,4.678,141.074,4.678s123.478-2.334,141.076-4.678a198.6,198.6,0,0,1-.028,85.458v.017l0-.005c-14.878-2.012-50.488-4.565-97.012-5.629h0l-2.376-2.61h-83.007l-2.386,2.625.017-.022c-46.677,1.059-82.412,3.619-97.324,5.636h0v-.005a198.514,198.514,0,0,1-.033-85.465l-4.256-6.381c-2.454,8.027-6.12,25.868-6.12,49.11,0,22.973,3.682,40.978,6.141,49.131h0c9.624-1.4,47.045-6.473,98.48-8.648h.042l-.02.023,5.457,6.012h83.005l5.459-6.012-.008-.01c51.29,2.179,88.6,7.235,98.206,8.635Zm-293.892-48.813c0-.1-.005-.207-.005-.314s.005-.212.005-.321Zm189.6,44.766h-81.738l-4.155-4.575,4.155-4.57h81.738l4.157,4.57Z" transform="translate(-3830.605 -1059.393)" fill="#927d4a"/>
      </g>
    </g>
    <g id="Group_12" data-name="Group 12" transform="translate(3830.605 1059.393)">
      <path id="Path_31" data-name="Path 31" d="M4107.97,1140.563h-11.153c-7.248,0-10.921-3.231-10.921-9.592v-34.54c0-6.306,3.674-9.5,10.921-9.5h11.153c7.191,0,10.837,3.2,10.837,9.5v34.54c0,6.363-3.646,9.592-10.837,9.592m-11.153-52.936c-6.876,0-10.22,2.88-10.22,8.8v34.54c0,5.98,3.345,8.889,10.22,8.889h11.153c6.821,0,10.137-2.909,10.137-8.889v-34.54c0-5.925-3.315-8.8-10.137-8.8Zm-13.123,52.936h-13.578l-9.9-25.908v25.908H4047.7v-53.635h12.521v25.265l9.9-25.265H4083.7l-10.8,26.486Zm-13.093-.7h12.06l-10.512-26.451,10.508-25.783H4070.6l-10.105,25.786Zm-22.2,0h11.112V1087.63H4048.4Zm-16.022.7h-10.655c-7.19,0-10.839-3.2-10.839-9.507v-34.625c0-6.306,3.649-9.5,10.839-9.5h10.655c7.245,0,10.916,3.2,10.916,9.5v4.8l-12.688,5.125v-8.845c0-1.2-.557-1.728-1.811-1.728h-3.415c-1.31,0-1.893.535-1.893,1.728v32.463a1.852,1.852,0,0,0,.384,1.365,2.33,2.33,0,0,0,1.51.366h3.415a2.127,2.127,0,0,0,1.428-.366,1.835,1.835,0,0,0,.386-1.365v-8.425H4043.3v9.507c0,6.312-3.671,9.507-10.916,9.507m-10.655-52.936c-6.822,0-10.137,2.88-10.137,8.8v34.625c0,5.923,3.315,8.8,10.137,8.8h10.655c6.874,0,10.214-2.882,10.214-8.8v-8.8h-11.285v7.72a2.409,2.409,0,0,1-.615,1.879,2.7,2.7,0,0,1-1.9.553h-3.415a2.863,2.863,0,0,1-1.982-.553,2.418,2.418,0,0,1-.613-1.879V1097.51c0-1.108.451-2.431,2.6-2.431h3.415a2.211,2.211,0,0,1,2.513,2.431v7.805l11.282-4.561v-4.326c0-5.925-3.34-8.8-10.214-8.8Zm-16.3,52.936h-12.6v-44.2h-7.7v44.2h-12.607v-44.5l-2.5-9.135h37.84l-2.447,8.976.005.14c0,.128.008.257.008.388Zm-11.9-.7h11.2v-43.429c0-.122-.008-.241-.01-.358l-.01-.252,2.234-8.191h-36l2.279,8.386v43.848h11.2v-44.2h9.108Zm-37.105.7H3945.27c-7.246,0-10.922-3.231-10.922-9.592v-34.54c0-6.306,3.676-9.5,10.922-9.5h11.153c7.191,0,10.837,3.2,10.837,9.5v34.54c0,6.363-3.646,9.592-10.837,9.592m-11.153-52.936c-6.877,0-10.22,2.88-10.22,8.8v34.54c0,5.98,3.342,8.889,10.22,8.889h11.153c6.82,0,10.137-2.909,10.137-8.889v-34.54c0-5.925-3.318-8.8-10.137-8.8Zm-12.979,52.936h-13.576l-9.9-25.9v25.9H3896.3v-53.635h12.521v25.26l9.9-25.26H3932.3l-10.8,26.486Zm-13.1-.7h12.063l-10.516-26.451,10.509-25.783H3919.2l-10.1,25.786Zm-22.194,0h11.115V1087.63H3897Zm-16.025.7h-10.653c-7.193,0-10.839-3.2-10.839-9.507v-34.625c0-6.306,3.646-9.5,10.839-9.5h10.653c7.248,0,10.922,3.2,10.922,9.5v4.8l-12.687,5.125v-8.845c0-1.2-.558-1.728-1.813-1.728h-3.414c-1.313,0-1.9.535-1.9,1.728v32.463a1.865,1.865,0,0,0,.389,1.365,2.323,2.323,0,0,0,1.51.366h3.412a2.153,2.153,0,0,0,1.428-.366,1.855,1.855,0,0,0,.383-1.365v-8.425h12.688v9.507c0,6.312-3.674,9.507-10.922,9.507m-10.653-52.936c-6.822,0-10.139,2.88-10.139,8.8v34.625c0,5.923,3.318,8.8,10.139,8.8h10.653c6.879,0,10.22-2.882,10.22-8.8v-8.8h-11.281v7.72a2.422,2.422,0,0,1-.612,1.879,2.706,2.706,0,0,1-1.9.553h-3.415a2.87,2.87,0,0,1-1.986-.553,2.45,2.45,0,0,1-.615-1.879V1097.51c0-1.108.451-2.431,2.6-2.431h3.412a2.211,2.211,0,0,1,2.513,2.431v7.805l11.285-4.561v-4.326c0-5.925-3.34-8.8-10.219-8.8Zm234.067,44.2h-3.992c-2.146,0-2.6-1.323-2.6-2.433V1098.1c0-1.111.456-2.433,2.6-2.433h3.995a2.214,2.214,0,0,1,2.516,2.433v31.293a2.214,2.214,0,0,1-2.516,2.433m-3.995-35.456c-1.313,0-1.9.533-1.9,1.728v31.293c0,1.2.588,1.728,1.9,1.728h3.995c1.253,0,1.813-.533,1.813-1.728V1098.1c0-1.2-.561-1.728-1.813-1.728Zm-147.551,35.456h-3.992c-2.149,0-2.6-1.323-2.6-2.433V1098.1c0-1.111.451-2.433,2.6-2.433h3.992a2.214,2.214,0,0,1,2.516,2.433v31.293a2.214,2.214,0,0,1-2.516,2.433m-3.992-35.456c-1.315,0-1.9.533-1.9,1.728v31.293c0,1.2.583,1.728,1.9,1.728h3.992c1.253,0,1.813-.533,1.813-1.728V1098.1c0-1.2-.561-1.728-1.813-1.728Z" transform="translate(-3837.783 -1066.237)" fill="url(#radial-gradient)"/>
      <g id="Group_11" data-name="Group 11">
        <g id="Group_8" data-name="Group 8" transform="translate(8.194 3.207)">
          <path id="Path_32" data-name="Path 32" d="M3841.509,1063.66v0Z" transform="translate(-3841.509 -1063.66)" fill="#fff"/>
          <g id="Group_22" data-name="Group 22">
            <g id="Group_21" data-name="Group 21" clip-path="url(#clip-path)">
              <g id="Group_7" data-name="Group 7" transform="translate(-0.285 -0.13)">
                <rect id="Rectangle_5" data-name="Rectangle 5" width="381.677" height="8.122" fill="url(#radial-gradient-2)"/>
              </g>
            </g>
          </g>
        </g>
        <g id="Group_10" data-name="Group 10" transform="translate(292.498 91.841)">
          <path id="Path_34" data-name="Path 34" d="M4219.85,1181.624h0v0" transform="translate(-4219.85 -1181.612)" fill="#fff"/>
          <g id="Group_24" data-name="Group 24" transform="translate(0 0)">
            <g id="Group_23" data-name="Group 23" clip-path="url(#clip-path-2)">
              <g id="Group_9" data-name="Group 9" transform="translate(-0.038 -0.122)">
                <rect id="Rectangle_6" data-name="Rectangle 6" width="0.307" height="0.231" fill="url(#radial-gradient-3)"/>
              </g>
            </g>
          </g>
        </g>
        <path id="Path_36" data-name="Path 36" d="M4127.369,1157.631c2.458-8.149,6.142-26.15,6.142-49.127,0-23.24-3.663-41.08-6.122-49.11h0c-17.342,2.655-59.444,7.026-118.479,8.094q-12.925.1-26.851.1t-26.852-.1c-59.035-1.068-101.137-5.44-118.479-8.094l4.256,6.381c17.6,2.344,65.207,4.678,141.074,4.678s123.478-2.334,141.076-4.678a198.6,198.6,0,0,1-.028,85.458v.017l0-.005c-14.878-2.012-50.488-4.565-97.012-5.629h0l-2.376-2.61h-83.007l-2.386,2.625.017-.022c-46.677,1.059-82.412,3.619-97.324,5.636h0v-.005a198.514,198.514,0,0,1-.033-85.465l-4.256-6.381c-2.454,8.027-6.12,25.868-6.12,49.11,0,22.973,3.682,40.978,6.141,49.131h0c9.624-1.4,47.045-6.473,98.48-8.648h.042l-.02.023,5.457,6.012h83.005l5.459-6.012-.008-.01c51.29,2.179,88.6,7.235,98.206,8.635Zm-293.892-48.813c0-.1-.005-.207-.005-.314s.005-.212.005-.321Zm189.6,44.766h-81.738l-4.155-4.575,4.155-4.57h81.738l4.157,4.57Z" transform="translate(-3830.605 -1059.393)" fill="url(#radial-gradient-4)"/>
      </g>
    </g>
  </g>
</svg>
